# xmcd CD database file
#
# Track frame offsets:
#	150
#	17107
#	30959
#	51901
#	68631
#	85020
#	99569
#	118497
#	135029
#	153152
#	169510
#	182128
#	195461
#	212175
#	225412
#	243527
#	263605
#	281183
#	297590
#	315110
#
# Disc length: 4423 seconds
#
# Revision: 0
# Processed by: cddbd v1.4PL0 Copyright (c) Steve Scherf et al.
# Submitted via: CDex 1.50beta10
#
DISCID=0b114514
DTITLE=As 20 Sertanejas mais tocadas - Love Machine
DYEAR=2003
DGENRE=Country
TTITLE0=Zeze Di Camargo e Luciano - A ferro e fogo
TTITLE1=Bruno e Marrone - Credo em cruz ave-maria
TTITLE2=Daniel - Um homem apaixonado
TTITLE3=Gian e Giovani - Sempre te amei
TTITLE4=Rick e Renner - Voce decide
TTITLE5=Leonardo - Te amo demais
TTITLE6=Bruno e Marrone - Agora vai
TTITLE7=Gian e Giovani - Taça de pranto
TTITLE8=Guilherme e Santiago - Som e imagem
TTITLE9=Bruno e Marrone - Menina
TTITLE10=Zeze Di Camargo e Luciano - Só maor pra ela
TTITLE11=Daniel - Bota pra moer
TTITLE12=Rick e Renner - Rodeio e vaquejada
TTITLE13=Leonardo - Ei, pissiu!!!
TTITLE14=Guilherme e Santiago - Hábito
TTITLE15=Rick e Renner - Só pensando em você
TTITLE16=Leonardo - Feito Tatuagem
TTITLE17=Pedro e Thiago - É Melhor assim
TTITLE18=Rick e Renner - Nois trupica, mas não cai
TTITLE19=Zeze Di Camargo e Luciano - Balançou
EXTD=YEAR: 2003
EXTT0=
EXTT1=
EXTT2=
EXTT3=
EXTT4=
EXTT5=
EXTT6=
EXTT7=
EXTT8=
EXTT9=
EXTT10=
EXTT11=
EXTT12=
EXTT13=
EXTT14=
EXTT15=
EXTT16=
EXTT17=
EXTT18=
EXTT19=
PLAYORDER=
